<?xml version="1.0" standalone="no"?>
<!DOCTYPE svg PUBLIC "-//W3C//DTD SVG 1.1//EN" "http://www.w3.org/Graphics/SVG/1.1/DTD/svg11.dtd" >
<svg xmlns="http://www.w3.org/2000/svg">
<metadata>
Created by FontForge 20120731 at Sun Jan  1 14:29:27 2017
 By admin
</metadata>
<defs>
<font id="iconfont" horiz-adv-x="1024" >
  <font-face 
    font-family="iconfont"
    font-weight="500"
    font-stretch="normal"
    units-per-em="1024"
    panose-1="2 0 6 3 0 0 0 0 0 0"
    ascent="896"
    descent="-128"
    x-height="792"
    bbox="0 -217 1299 897"
    underline-thickness="0"
    underline-position="0"
    unicode-range="U+0078-E7B5"
  />
<missing-glyph 
 />
    <glyph glyph-name=".notdef" 
 />
    <glyph glyph-name=".notdef" 
 />
    <glyph glyph-name=".null" horiz-adv-x="0" 
 />
    <glyph glyph-name="nonmarkingreturn" horiz-adv-x="341" 
 />
    <glyph glyph-name="x" unicode="x" horiz-adv-x="1001" 
d="M281 543q-27 -1 -53 -1h-83q-18 0 -36.5 -6t-32.5 -18.5t-23 -32t-9 -45.5v-76h912v41q0 16 -0.5 30t-0.5 18q0 13 -5 29t-17 29.5t-31.5 22.5t-49.5 9h-133v-97h-438v97zM955 310v-52q0 -23 0.5 -52t0.5 -58t-10.5 -47.5t-26 -30t-33 -16t-31.5 -4.5q-14 -1 -29.5 -0.5
t-29.5 0.5h-32l-45 128h-439l-44 -128h-29h-34q-20 0 -45 1q-25 0 -41 9.5t-25.5 23t-13.5 29.5t-4 30v167h911zM163 247q-12 0 -21 -8.5t-9 -21.5t9 -21.5t21 -8.5q13 0 22 8.5t9 21.5t-9 21.5t-22 8.5zM316 123q-8 -26 -14 -48q-5 -19 -10.5 -37t-7.5 -25t-3 -15t1 -14.5
t9.5 -10.5t21.5 -4h37h67h81h80h64h36q23 0 34 12t2 38q-5 13 -9.5 30.5t-9.5 34.5q-5 19 -11 39h-368zM336 498v228q0 11 2.5 23t10 21.5t20.5 15.5t34 6h188q31 0 51.5 -14.5t20.5 -52.5v-227h-327z" />
    <glyph glyph-name="kaishi" unicode="&#xe646;" 
d="M1016 435q0 -17 -6.5 -32t-17.5 -26.5t-26 -18.5t-32 -7h-349q34 0 58 -22t24 -55t-24 -57t-58 -24h-31q17 0 32 -6.5t26.5 -17t18 -25t6.5 -30.5q0 -17 -9.5 -31.5t-25 -25.5t-36 -18t-42.5 -7q35 0 56 -23.5t21 -57.5q0 -21 -12 -35.5t-30 -24.5t-38.5 -14.5
t-37.5 -4.5h-55h-249q-33 0 -61.5 11t-49 30.5t-32.5 47.5t-12 63v316q0 20 1.5 41t7.5 39t18.5 33t34.5 24q31 13 74 43.5t82.5 71.5t67.5 91.5t28 102.5q1 30 9 51t19.5 34t25.5 19t28 6q37 0 62 -23t36 -74q2 -46 -5 -95q-6 -42 -22 -92.5t-48 -99.5h491q34 0 58 -21.5
t24 -55.5z" />
    <glyph glyph-name="gift" unicode="&#xe636;" 
d="M235 744q51 15 96 -8q12 -6 32 -23q6 -6 13 -14t11.5 -14.5t11.5 -17t10 -15.5t10 -17t10 -16q24 -42 42 -58q18 -18 42 -17q22 1 40 19q8 7 15.5 17.5t12.5 18t13 21t11 19.5q40 68 77 92q44 29 100 15q33 -9 49 -33q24 -34 13 -83q-9 -49 -53 -82q-15 -11 -39 -22h104
h103v-206h-18h-19v-233.5v-233.5h-141h-141q-8 -1 -88.5 -0.5t-88.5 0.5h-363v467h-19h-19v206h208q-62 26 -85 79q-21 51 -1 95q14 33 51 44v0zM225 695q-18 -21 -11 -58q8 -38 45 -63q44 -30 104 -30h35.5h35.5q-11 14 -22 30.5t-23 37.5t-19 32q-22 34 -43 50
q-24 20 -59 18q-30 -1 -43 -17v0zM707 702q-28 -15 -53 -55q-4 -5 -27.5 -44.5t-39.5 -58.5h40.5h40.5q45 2 82 22q45 25 56 66q10 36 -6 59q-9 15 -31 19q-36 7 -62 -8v0zM100 488v-130h149.5h149.5v65v65h-150h-149v0zM436 488v-597h150v597h-150v0zM623 358h299v65v65
h-149.5h-149.5v-130v0zM137 320v-215v-215h131h131v430h-131h-131v0zM623 320v-215.5v-214.5h131h131v135v159.5v135.5h-262v0zM623 320z" />
    <glyph glyph-name="shanchu" unicode="&#xe615;" 
d="M427 476h160q8 0 14 6t6 14t-6 14t-14 6h-160q-9 0 -14.5 -6t-5.5 -14t5.5 -14t14.5 -6zM587 416h-160q-25 0 -42.5 -17.5t-17.5 -42.5v-60v-153q0 -24 17.5 -42t42.5 -18h160q25 0 42.5 18t17.5 42v153v60q0 25 -17.5 42.5t-42.5 17.5zM447 143q0 -8 -6 -14t-14.5 -6
t-14 6t-5.5 14v213q0 8 5.5 14t14 6t14.5 -6t6 -14v-213zM527 143q0 -8 -6 -14t-14 -6t-14 6t-6 14v213q0 8 6 14t14 6t14 -6t6 -14v-213zM607 143q0 -8 -6 -14t-14 -6t-14 6t-6 14v213q0 8 6 14t14 6t14 -6t6 -14v-213zM513.5 749q-91.5 0 -174.5 -35.5t-143.5 -96
t-96 -143.5t-35.5 -174.5t35.5 -174.5t96 -143t143.5 -95.5t174.5 -35.5t174.5 35.5t143 95.5t95.5 143t35.5 174.5t-35.5 174.5t-95.5 143.5t-143 96t-174.5 35.5zM727 416h-43q3 -10 3 -20v-293q0 -24 -17.5 -42t-42.5 -18h-240q-25 0 -42.5 18t-17.5 42v293q0 10 3 20
h-44q-8 0 -14 6t-6 14t6 14t14 6h81v20v20q0 25 17.5 42.5t42.5 17.5h160q25 0 42.5 -17.5t17.5 -42.5v-20v-20h80q9 0 14.5 -6t5.5 -14t-5.5 -14t-14.5 -6z" />
    <glyph glyph-name="heart" unicode="&#xe603;" 
d="M768 764q-82 0 -150.5 -38t-105.5 -101q-37 63 -105.5 101t-150.5 38q-119 0 -187.5 -86t-68.5 -202q0 -68 27 -140t67 -130t95.5 -116.5t102 -98.5t97.5 -77.5t72 -51t35 -21.5q7 -5 16 -5t16 5q14 8 35 21.5t72 51t97.5 77.5t102 98.5t95.5 116.5t67 130t27 140
q0 116 -68.5 202t-187.5 86zM512 -94q-24 16 -51 34.5t-73.5 55t-87 73.5t-85.5 87.5t-77 99.5t-53 107t-21 113q0 90 50 157t142 67q86 0 155 -53.5t69 -138.5q0 -13 9.5 -22.5t22.5 -9.5t22.5 9.5t9.5 22.5q0 85 69 138.5t155 53.5q92 0 142 -67t50 -157q0 -55 -21 -113
t-53 -107t-77 -99.5t-85.5 -87.5t-87 -73.5t-73.5 -55t-51 -34.5z" />
    <glyph glyph-name="pig" unicode="&#xe637;" 
d="M924 290q0 -13 -7 -23q-2 2 -3 5q-7 18 6 45v0q5 -5 4 -27zM801 143q-3 -6 -3 -13v-150h-62v43q0 15 -12.5 22.5t-25.5 1.5q-53 -27 -112 -27q-58 0 -110 26q-13 6 -25.5 -1.5t-12.5 -22.5v-42h-62v113q0 13 -11 21t-24 3q-27 -10 -55 -10q-38 0 -71 17t-54 46
q-8 11 -21 11h-50v82h22q10 0 17 6t9 15q11 47 49.5 78.5t89.5 34.5q10 1 17.5 8.5t7.5 17.5v43q25 -18 51 -61q7 -12 20.5 -13t21.5 10q35 42 85 65t106 23q102 0 173.5 -69t71.5 -166q0 -60 -30 -112zM991.5 288.5q-12.5 3.5 -16.5 -8.5q-12 -33 -34 -27h-2q11 16 12 36
q1 40 -18 51q-15 8 -30 -2q-3 -2 -4 -5q-23 -38 -10 -70q3 -8 8 -14l-14 -7q1 9 1 13q0 119 -87.5 203t-210.5 84q-121 0 -207 -81q-51 69 -101 69l-7 -1q-9 -2 -15.5 -9t-6.5 -17v-57q-54 -9 -96 -44.5t-60 -85.5h-30q-10 0 -18 -7.5t-8 -18.5v-135q0 -11 8 -18.5t18 -7.5
h64q29 -35 70.5 -54.5t88.5 -19.5q19 0 38 3v-83q0 -20 14 -33.5t33 -13.5h72q20 0 33.5 13.5t13.5 33.5v8q97 -32 194 1v-9q0 -20 14 -33.5t33 -13.5h72q20 0 33.5 13.5t13.5 33.5v148q23 42 30 91q23 7 40 19q6 -4 14 -6q25 -7 42 9t24 36q4 13 -8.5 16.5zM214.5 335
q-7.5 0 -12.5 -8t-5 -19t5 -19t12.5 -8t12.5 8t5 19t-5 19t-12.5 8zM664 432q-25 10 -48.5 13t-39 1.5t-29 -5t-18.5 -6t-7 -4.5q-11 -7 -4 -18t18 -4q6 4 15.5 7.5t39.5 3.5t64 -12q2 -1 4 -1q9 0 13 9q4 12 -8 16zM654.5 586q29.5 0 50.5 20.5t21 50t-21 50.5t-50.5 21
t-50 -21t-20.5 -50.5t20.5 -50t50 -20.5z" />
    <glyph glyph-name="sheji" unicode="&#xe647;" 
d="M400 651h-97v-461h40l57 57v404zM532 190l58 57v404h-159v-404l57 -57h44zM511 -50l207 209h-78l-80 -80h-98l-80 80h-79zM876 812h-61v-97h61q20 0 34 -13.5t14 -33.5v-732q0 -20 -14 -34t-34 -14h-732q-20 0 -33.5 14t-13.5 34v732q0 20 13.5 33.5t33.5 13.5h477v-468
l58 -57h39v622h-574q-60 0 -102 -42t-42 -102v-732q0 -60 42 -102t102 -42h732q60 0 102 42t42 102v732q0 60 -42 102t-102 42z" />
    <glyph glyph-name="xinyongqia" unicode="&#xe63c;" 
d="M881 572h-725q-19 0 -32.5 -13.5t-13.5 -31.5v-454q0 -18 13.5 -31.5t32.5 -13.5h725q19 0 32 13.5t13 31.5v454q0 18 -13 31.5t-32 13.5zM896 73q0 -6 -4.5 -10.5t-10.5 -4.5h-725q-7 0 -11 4.5t-4 10.5v287h755v-287zM896 391h-755v60h755v-60zM896 481h-755v46
q0 6 4 10.5t11 4.5h725q6 0 10.5 -4.5t4.5 -10.5v-46zM503 149h-302v-30h302v30zM382 240h-181v-31h181v31zM745 119h61q12 0 21 8.5t9 20.5v2q0 12 -9 20.5t-21 8.5h-61q-13 0 -21.5 -8.5t-8.5 -20.5v-2q0 -12 8.5 -20.5t21.5 -8.5z" />
    <glyph glyph-name="baby" unicode="&#xe601;" 
d="M512 -180q-53 0 -90.5 37.5t-37.5 90.5t37.5 90.5t90.5 37.5t90.5 -37.5t37.5 -90.5t-37.5 -90.5t-90.5 -37.5zM512 12q-26 0 -45 -19t-19 -45t19 -45t45 -19t45 19t19 45t-19 45t-45 19zM352 -79q-8 0 -15 3q-73 38 -124.5 102.5t-72.5 144.5q-6 -1 -12 -1
q-40 0 -68 28.5t-28 68t28 67.5t68 28h12q18 69 60 127.5t102 98.5q11 7 24 4.5t20.5 -13.5t4.5 -24t-14 -21q-57 -37 -94 -94.5t-47 -125.5q-3 -17 -19 -24.5t-31 3.5q-8 5 -18 5q-13 0 -22.5 -9t-9.5 -22.5t9.5 -23t22.5 -9.5q10 0 18 6q15 10 31 3t19 -25
q11 -76 56.5 -139t114.5 -98q11 -6 15.5 -18.5t-2.5 -24.5q-8 -17 -28 -17zM673 -79q-20 0 -29 17q-6 12 -2 25t16 19q68 35 113.5 97.5t56.5 138.5q3 18 19 25t31 -3q8 -6 18 -6q13 0 22.5 9.5t9.5 23t-9.5 22.5t-22.5 9q-10 0 -18 -5q-15 -11 -31 -3.5t-19 24.5
q-10 68 -47 125.5t-94 94.5q-11 8 -14 21t4.5 24t20.5 13.5t24 -4.5q60 -40 102 -98.5t60 -127.5h12q40 0 68 -28t28 -67.5t-28 -68t-68 -28.5q-6 0 -12 1q-21 -79 -72 -144t-125 -102q-7 -4 -14 -4zM466 419q-13 0 -22.5 9.5t-9.5 23t9.5 22.5t22.5 9q55 0 93.5 38.5
t38.5 93.5q0 41 -29 70t-70 29q-30 0 -51.5 -21.5t-21.5 -51.5q0 -21 15.5 -36.5t36.5 -15.5q14 0 24.5 10.5t10.5 24.5t9.5 23t22.5 9t22.5 -9t9.5 -23q0 -41 -29 -70t-70 -29q-48 0 -82 34t-34 82q0 57 40 97t97 40q67 0 115 -48t48 -115q0 -81 -57.5 -138.5t-138.5 -57.5
zM370 282zM322 282q0 20 14 34t34 14t34 -14t14 -34t-14 -34t-34 -14t-34 14t-14 34zM658 282zM610 282q0 20 14 34t34 14t34 -14t14 -34t-14 -34t-34 -14t-34 14t-14 34z" />
    <glyph glyph-name="fanhuidingbu01" unicode="&#xe63d;" 
d="M928 71q-13 0 -23 9l-393 393l-393 -393q-10 -9 -23 -9t-22.5 9t-9.5 22.5t9 22.5l416 416q10 10 23 10t23 -10l416 -416q9 -9 9 -22.5t-9.5 -22.5t-22.5 -9z" />
    <glyph glyph-name="back-top" unicode="&#xe628;" 
d="M951 793h-878q-27 0 -46.5 -19.5t-19.5 -46.5v-878q0 -27 19.5 -46.5t46.5 -19.5h878q27 0 46.5 19.5t19.5 46.5v878q0 27 -19.5 46.5t-46.5 19.5zM638 206v-231h-253l1 230h-164l290 281l295 -278zM825 508h-626v93h626v-93z" />
    <glyph glyph-name="heart1" unicode="&#xe605;" 
d="M629 589q-53 0 -97 -28t-67 -75q-23 47 -67 75t-97 28q-77 0 -130.5 -56.5t-53.5 -136.5q0 -48 22 -90q0 -3 15 -24q12 -17 18 -23q84 -98 293 -305v0q211 207 295 305q6 6 18 23q15 21 15 24q22 42 22 90q-1 80 -55.5 136.5t-130.5 56.5zM770 378v-4q0 -2 -1 -6.5
t-1 -6.5q0 -4 -2 -4q-1 -2 -2 -6t-2 -6q0 -2 -2 -4q-1 -2 -3 -7t-3 -7t-3 -5.5t-3 -5.5v0q6 -8 -129.5 -149t-153.5 -154q-21 18 -154 157t-127 146v0q-1 2 -3 5.5t-3 5.5t-3 7t-3 7q0 2 -2 4q-1 2 -2 6t-2 6q0 4 -2 4q0 2 -1 6.5t-1 6.5v4q0 3 -1 8.5t-1 7.5q0 62 41.5 105
t99.5 43q12 0 18 -2h5q4 0 16 -4h2q12 -5 16 -7q1 0 2 -1t2 -1q3 -1 8 -4t7 -4v0q6 -4 14 -12h2v0q47 -42 70 -76q23 34 69 76v0h3q8 8 14 12v0v0q2 2 14 8q1 0 2 1t2 1q3 1 8.5 3t8.5 4h2q3 1 8 2t8 2h4q3 0 9.5 1t9.5 1q58 0 99.5 -43t41.5 -105q4 -4 4 -16z" />
    <glyph glyph-name="top" unicode="&#xe629;" 
d="M97 738h830v-138h-830v138zM927 115h-207v-277h-416v277h-207l415 415z" />
    <glyph glyph-name="demo31" unicode="&#xe62c;" 
d="M507 721q-113 0 -209 -55.5t-151.5 -151.5t-55.5 -209t55.5 -209t151.5 -151.5t209 -55.5t208.5 55.5t151.5 151.5t56 209t-56 209t-151.5 151.5t-208.5 55.5zM504 108q-80 0 -136 56t-56 136t56 136t136 56t136 -56t56 -136t-56 -136t-136 -56z" />
    <glyph glyph-name="zuoqianfang" unicode="&#xe62a;" 
d="M132 679h759q15 0 25 10t10 24.5t-10 24.5t-25 10h-759q-14 0 -24 -10t-10 -24.5t10 -24.5t24 -10zM847 289l-311 311l-1 1v0l-1 1v0l-1 1v0h-0.5t-0.5 1h-1v0l-1 1v0v0q-1 0 -1 1v0h-1l-0.5 0.5t-1 0.5h-1h-0.5l-0.5 0.5t-1 0.5h-0.5h-1l-0.5 0.5t-1.5 0.5v0v0h-1h-1v0
q-1 0 -1 1h-0.5h-0.5h-0.5h-1h-0.5h-2h-2h-0.5h-1h-0.5h-1v0q0 -1 -1 -1h-0.5h-0.5h-1v0v0q-1 0 -1.5 -0.5l-0.5 -0.5h-1h-1l-0.5 -0.5l-0.5 -0.5h-1h-1v-1h-1v0v0l-0.5 -0.5t-1.5 -0.5v0v0v0l-1 -1l-0.5 -0.5t-1 -0.5h-0.5v0l-1 -1h-1v-1v0l-1 -1v0l-311 -311
q-10 -10 -10 -24t10 -24.5t24 -10.5t25 10l251 252v-606q0 -14 10.5 -24t24.5 -10t24 10t10 24v606l252 -252q10 -10 24.5 -10t24.5 10.5t10 24.5t-10 24z" />
    <glyph glyph-name="wujiaoxing" unicode="&#xe62e;" 
d="M910 388l-265 38l-119 241l-119 -241l-265 -38l192 -188l-45 -264l237 124l237 -124l-45 264zM526 119l-168 -89l31 188l-136 133l189 27l84 171l84 -171l188 -27l-136 -133l32 -188z" />
    <glyph glyph-name="chuxuguan" unicode="&#xe638;" 
d="M318 -30q-13 0 -20.5 8t-6.5 21v86q-103 49 -145 112h-54v0q-10 0 -16 7q-7 7 -7 19l-2 191q-2 13 5 22q6 8 17 9h1l47 -1q38 57 60 73q-11 84 -13 95v2q0 15 9 24q12 13 34 4q56 -26 78 -60q101 47 216 47q131 0 242 -69q33 -21 57.5 -47.5t37.5 -52.5t18.5 -44t7.5 -34
h53l3 -2q17 -10 17 -26t-17 -26l-3 -2h-49q1 -19 -2.5 -41t-14.5 -54t-38.5 -66.5t-68.5 -63.5l1 -99q1 -11 -5 -20t-17 -11h-3h-139q-14 -1 -21 8q-7 7 -7 18l1 40q-32 -2 -60 -2q-17 0 -30 1l-3 -42q-3 -20 -21 -24h-2h-138h-2zM319 -2v0h134l5 68l14 -1q17 -2 42 -2
q37 0 74 3l15 1l-1 -68h134v2l-1 115l6 4q39 26 65 60t36 63.5t14.5 55.5t2.5 41l-1 15q0 4 -1 12.5t-8 31.5t-17.5 44.5t-32.5 47.5t-51 45q-104 64 -227 64q-54 0 -110 -13.5t-75.5 -22t-29.5 -14.5l-15 -7l-6 15q-5 16 -28 32.5t-42 25.5q-1 1 -2 1v-2l13 -104l-6 -8
q-43 -50 -64 -81l-5 -6l-56 1v-2l2 -189h65l4 -7q11 -18 30 -36.5t36.5 -31t38 -24t28 -15t11.5 -5.5l9 -4v-105zM281.5 372q-19.5 0 -33 13.5t-13.5 33t13.5 33.5t33 14t33.5 -14t14 -33.5t-14 -33t-33.5 -13.5zM282 437q-8 0 -13.5 -5.5t-5.5 -13t5.5 -13t13.5 -5.5
t13.5 5.5t5.5 13t-5.5 13t-13.5 5.5zM656 443l-13 5q-50 19 -101 19q-46 0 -107 -20l-13 -4l-18 50l12 6q61 26 124 26q66 0 124 -27l11 -6zM456 483q50 13 86 13q24 0 51 -6q-12 3 -66.5 0t-70.5 -7z" />
    <glyph glyph-name="zhuanxiangyewu0yuanshiyong" unicode="&#xe639;" 
d="M888 544l-87 -403q-4 -22 6 -42l65 -131h-721l65 132q10 20 6 41l-86 403h752zM928 608h-832q-13 0 -22.5 -9.5t-9.5 -22.5l95 -448l-95 -192q0 -13 9.5 -22.5t22.5 -9.5h832q13 0 22.5 9.5t9.5 22.5l-96 192l96 448q0 13 -9.5 22.5t-22.5 9.5v0zM320 608q35 161 191 161
q158 0 194 -161h31q-10 66 -30 111t-50.5 69t-65 34t-80 10t-79 -10t-62.5 -34t-48 -68.5t-29 -111.5h28zM368 383h-128q-7 0 -11.5 -4.5t-4.5 -11t4.5 -11t11.5 -4.5h48v-144q0 -7 4.5 -11.5t11.5 -4.5t11.5 4.5t4.5 11.5v144h48q7 0 11.5 4.5t4.5 11t-4.5 11t-11.5 4.5z
M575 214l-32 76q14 5 23.5 17.5t9.5 28.5q0 19 -14 33t-34 14h-80q-20 0 -26 -6t-6 -25v-144q0 -7 4.5 -11.5t11.5 -4.5t11.5 4.5t4.5 11.5v80h61l36 -86q3 -7 9 -9.5t12 0.5t8.5 9t0.5 12zM448 352h80q7 0 11.5 -5t4.5 -11.5t-4.5 -11t-11.5 -4.5h-80v32zM720 383
q-7 0 -11.5 -4.5t-4.5 -11.5v-79h-64v79q0 7 -4.5 11.5t-11.5 4.5t-11.5 -4.5t-4.5 -11.5v-79q0 -14 9.5 -23t22.5 -9h64v-32h-80q-7 0 -11.5 -5t-4.5 -11.5t4.5 -11t11.5 -4.5h96q7 0 11.5 4.5t4.5 11.5v80v79q0 7 -4.5 11.5t-11.5 4.5z" />
    <glyph glyph-name="red" unicode="&#xe616;" 
d="M484 802q-114 0 -210 -56t-152 -152t-56 -210t56 -210t152 -152t210 -56t210 56t152 152t56 210t-56 210t-152 152t-210 56zM372 84q0 -12 -13 -13q-10 0 -16 1q-7 3 -6 10q2 8 9 7q10 -2 10 3v97h-13q-6 1 -6 9q0 7 7 8h36q4 0 5 -4q2 5 7 5h82q7 0 7 -8q-1 -8 -8 -9
h-36l-3 -11h24q15 0 14 -13v-63q0 -7 -8 -8q-8 1 -9 8v57q0 1 -2 1h-43q-2 0 -2 -1v-56q-1 -8 -9 -8t-8 8v62q0 13 11 13h14l3 11h-25q-4 0 -8 3q-2 -4 -7 -4h-7v-105zM480 72q-5 -8 -13 -3q-5 2 -14 8q-10 5 -15 7q-9 4 -7 11q-2 -4 -7 -8h-1l-1 -1q-14 -12 -32 -18
q-9 -3 -12 4t5 11q28 12 34 23q7 11 7 41q0 9 8 9t8 -9q2 -31 -7 -48q6 8 16 1q7 -4 19 -11q6 -4 8 -5q8 -4 4 -12zM556 74h-42q-11 0 -12 10v34q0 14 12 13h43q12 1 12 -13v-34q1 -10 -13 -10zM614 79q-9 0 -15 2q-6 3 -4 10q3 7 11 5q16 -3 14 13q-1 13 -17 31q-5 5 -1 16
q6 21 9 32h-17q-2 0 -2 -2v-110q-1 -8 -8 -9q-8 1 -9 9v65q-2 -3 -5 -3h-69q-7 1 -7 9t7 8h15q-1 1 -9 15q-3 8 4 11h-7q-7 1 -7 9t7 8h22q-1 2 -1 4q-2 6 5 10q9 3 11 -3t5 -11h20q7 0 7 -8t-7 -9h-47q4 -2 10 -17q2 -6 -1 -9h13q1 2 2 5q4 9 5 15q3 6 11 5q7 -3 5 -10
q-1 -3 -2 -7q-2 -5 -3 -8h11q3 0 5 -2v42q0 12 9 11h37q14 0 11 -15q0 -1 -3 -11q-5 -15 -7 -22q-2 -6 -2 -8q1 -2 4 -6q13 -19 14 -37q0 -28 -24 -28zM647 429.5q-6 -5.5 -13.5 -5.5t-12.5 5l-1 1l-117 117v-280q0 -7 -6 -12t-14 -5t-13 5t-5 12v2l-1 278l-116 -117
q-1 0 -2 -1q-5 -5 -12.5 -5t-13 5.5t-6 13.5t4.5 13l148 148q4 5 9 7q4 1 7 1l0.5 0.5l0.5 0.5v-1q4 1 7 -1q6 -2 9 -7l148 -148q5 -5 5 -13t-6 -13.5zM637 658h-305q-7 0 -12 5t-5 12t5 12t12 5h305q7 0 12 -5t5 -12t-5 -12t-12 -5zM549 114h-28q-2 0 -2 -2v-19q0 -3 2 -3
h28q3 1 3 3v19q0 2 -3 2z" />
    <glyph glyph-name="duigou" unicode="&#xe62f;" horiz-adv-x="1336" 
d="M50 12zM1140 12zM87 33zM538 -64q138 192 308 385q81 92 142 155q49 50 120 116q131 124 191 160l-62 82q-85 -54 -243 -162q-47 -33 -109 -78q-30 -22 -105 -79q-113 -86 -224 -182l-199 188l-233 -184zM1336 33z" />
    <glyph glyph-name="phone" unicode="&#xe69e;" 
d="M732 831h-444q-20 0 -39.5 -13.5t-19.5 -31.5v-804q0 -18 19.5 -31.5t39.5 -13.5h444q20 0 41.5 13.5t21.5 31.5v804q0 18 -21.5 31.5t-41.5 13.5zM747 -5q0 -5 -3.5 -8.5t-8.5 -3.5h-448q-5 0 -8.5 3.5t-3.5 8.5v132h472v-132zM747 172h-472v473h472v-473zM747 690h-472
v73q0 6 4 15t8 9h448q5 0 8.5 -3.5t3.5 -8.5v-85zM557 80h-94v-46h94v46z" />
    <glyph glyph-name="anonymous-iconfont" unicode="&#xe63a;" 
d="M690 647l-179 -188l-175 188l-39 -21l193 -205h-171v-43h171v-85h-171v-43h171v-128h42v128h171v43h-171v85h171v43l-171 -4l192 209zM690 647zM511 833q-91 0 -174 -35.5t-143 -95.5t-95.5 -143t-35.5 -174.5t35.5 -174.5t95.5 -143t143 -95.5t174 -35.5t174 35.5
t143 95.5t95.5 143t35.5 174.5t-35.5 174.5t-95.5 143t-143 95.5t-174 35.5v0v0zM511 -35q-114 0 -210.5 56.5t-153 153t-56.5 210t56.5 210.5t153 153t210 56t210.5 -56t153.5 -153t56.5 -210.5t-56.5 -210t-153.5 -153t-210 -56.5v0v0zM511 -35z" />
    <glyph glyph-name="icback" unicode="&#xe604;" 
d="M341 384l256 341h86l-256 -341l256 -341h-86z" />
    <glyph glyph-name="icchevronleft" unicode="&#xe622;" 
d="M657 580l-60 60l-256 -256l256 -256l60 60l-196 196z" />
    <glyph glyph-name="icchevronless" unicode="&#xe623;" 
d="M512 555l-256 -256l60 -60l196 196l196 -196l60 60z" />
    <glyph glyph-name="icchevronmore" unicode="&#xe624;" 
d="M708 529l-196 -196l-196 196l-60 -60l256 -256l256 256z" />
    <glyph glyph-name="icchevronright" unicode="&#xe625;" 
d="M367 580l60 60l256 -256l-256 -256l-60 60l196 196z" />
    <glyph glyph-name="iczommout" unicode="&#xe626;" 
d="M672 125q-101 -69 -226.5 -57t-214.5 101q-68 68 -92 158t0 180.5t92 157.5q50 51 115.5 77t132 26t132 -26t116.5 -77q89 -89 101 -214.5t-57 -226.5l6 -6l98 -98q21 -21 21 -50t-20.5 -49.5t-49.5 -20.5t-50 21l-98 98l-6 6v0zM677 219q82 82 82 198.5t-82 198.5
t-198 82t-198.5 -82t-82.5 -198.5t82.5 -198.5t198.5 -82t198 82zM320 448v-64h320v64h-320z" />
    <glyph glyph-name="iczoomout2" unicode="&#xe627;" 
d="M256 448h512v-128h-512v128z" />
    <glyph glyph-name="yuan" unicode="&#xe630;" 
d="M512 840q-115 0 -212.5 -56.5t-154 -154t-56.5 -212.5t56.5 -212.5t154 -154t212.5 -56.5t212.5 56.5t154 154t56.5 212.5t-56.5 212.5t-154 154t-212.5 56.5zM512 32q-105 0 -193.5 51.5t-140 140t-51.5 193.5t51.5 193.5t140 140t193.5 51.5t193.5 -51.5t140 -140
t51.5 -193.5t-51.5 -193.5t-140 -140t-193.5 -51.5zM512 417zM272 417q0 99 70.5 169.5t169.5 70.5t169.5 -70.5t70.5 -169.5t-70.5 -169.5t-169.5 -70.5t-169.5 70.5t-70.5 169.5z" />
    <glyph glyph-name="xiazai40" unicode="&#xe606;" 
d="M290 323q0 -80 56.5 -136.5t136.5 -56.5t136.5 56.5t56.5 136.5t-56.5 136.5t-136.5 56.5t-136.5 -56.5t-56.5 -136.5zM483 452q53 0 91 -38t38 -91t-38 -91t-91 -38t-91 38t-38 91t38 91t91 38zM815 532zM766 532q0 20 14.5 34.5t34.5 14.5t34 -14.5t14 -34.5t-14 -34
t-34 -14t-34.5 14t-14.5 34zM322 735h129q13 0 22.5 9.5t9.5 22.5t-9.5 22.5t-22.5 9.5h-129q-13 0 -22.5 -9.5t-9.5 -22.5t9.5 -22.5t22.5 -9.5zM863 672h-348q-13 0 -22.5 -9.5t-9.5 -22.5t9.5 -22.5t22.5 -9.5h348q13 0 22.5 -9.5t9.5 -22.5v-512q0 -13 -9 -22t-22 -9
h-539v0h-164q-13 0 -22.5 9.5t-9.5 22.5v511q0 13 9.5 22.5t22.5 9.5h97q13 0 22.5 9.5t9.5 22.5t-9.5 22.5t-22.5 9.5h-97q-40 0 -68.5 -28.5t-28.5 -67.5v-511q0 -39 28.5 -67.5t68.5 -28.5h703q39 0 67 28t28 67l1 512q0 39 -28.5 67.5t-68.5 28.5z" />
    <glyph glyph-name="xiazai41" unicode="&#xe607;" 
d="M889 154v0q-10 -10 -23 -10t-23 10l-90 90q-9 9 -9 22.5t9 22.5v0q9 9 22.5 9t22.5 -9l91 -90q9 -10 9 -23t-9 -22zM935 415v0q0 -14 -9 -23t-23 -9h-127q-13 0 -22.5 9t-9.5 23v0q0 13 9.5 22.5t22.5 9.5h127q14 0 23 -9.5t9 -22.5zM753 522v0q9 -9 22.5 -9t22.5 9
l91 90q9 10 9 23t-9 22v0q-10 10 -23 10t-23 -10l-90 -90q-9 -9 -9 -22.5t9 -22.5zM623 -56q-17 0 -33 13l-246 209q-10 9 -11.5 22t7 23t22 11t23.5 -7l216 -183v704l-194 -166q-31 -26 -72 -26h-182v-322h87q13 0 22.5 -9.5t9.5 -22.5t-9.5 -22.5t-22.5 -9.5h-90
q-26 0 -43.5 18t-17.5 43v328q0 25 17.5 43t43.5 18h185q18 0 31 11l224 192q25 21 50 9t25 -44v-784q0 -32 -25 -44q-8 -4 -17 -4z" />
    <glyph glyph-name="xiazai42" unicode="&#xe608;" 
d="M738 32v64h-65v-64h65zM835 32q12 0 20.5 8.5t8.5 20.5v35h-63v-64h34zM415 672v-191h-191v191h191zM450 736h-261q-12 0 -20.5 -8.5t-8.5 -20.5v-261q0 -12 8.5 -20.5t20.5 -8.5h261q12 0 20.5 8.5t8.5 20.5v261q0 12 -8.5 20.5t-20.5 8.5v0zM320 576zM288 576.5
q0 13.5 9 22.5t22.5 9t22.5 -9t9 -22.5t-9 -22.5t-22.5 -9t-22.5 9t-9 22.5zM800 672v-191h-191v191h191zM835 736h-261q-12 0 -20.5 -8.5t-8.5 -20.5v-261q0 -12 8.5 -20.5t20.5 -8.5h261q12 0 20.5 8.5t8.5 20.5v261q0 12 -8.5 20.5t-20.5 8.5v0zM704 576zM673 576.5
q0 13.5 9 22.5t22.5 9t22.5 -9t9 -22.5t-9 -22.5t-22.5 -9t-22.5 9t-9 22.5zM415 287v-191h-191v191h191zM450 351h-261q-12 0 -20.5 -8.5t-8.5 -20.5v-261q0 -12 8.5 -20.5t20.5 -8.5h261q12 0 20.5 8.5t8.5 20.5v261q0 12 -8.5 20.5t-20.5 8.5v0zM320 192zM288 191.5
q0 13.5 9 22.5t22.5 9t22.5 -9t9 -22.5t-9 -22.5t-22.5 -9t-22.5 9t-9 22.5zM835 351h-36v-128h-63v128h-162q-12 0 -20.5 -8.5t-8.5 -20.5v-261q0 -12 8.5 -20.5t20.5 -8.5h35v64v64v63h64v-63h191v162q0 12 -8.5 20.5t-20.5 8.5z" />
    <glyph glyph-name="xiazai5" unicode="&#xe609;" 
d="M994 -45l-173 173q108 127 108 294q0 93 -36 177.5t-97 145t-145 97t-177 36.5t-177 -36.5t-145 -97t-97 -145t-36 -177t36 -177t97 -145.5t145 -97t177 -36q166 0 293 108l173 -173q11 -12 27 -12t27 11.5t11 27t-11 26.5zM474 43q-103 0 -190.5 51t-138 138t-50.5 190
t50.5 190.5t138 138.5t190.5 51t190.5 -51t138 -138.5t50.5 -190.5t-50.5 -190t-138 -138t-190.5 -51z" />
    <glyph glyph-name="xiazai19" unicode="&#xe60a;" 
d="M226 771q81 81 189.5 109.5t216.5 0t189 -109.5q80 -80 99.5 -190t-18 -217t-119.5 -190l-259 -298l-260 298q-82 83 -119.5 190t-18 217t99.5 190zM524 -16l205 244q67 68 99.5 155.5t18 177.5t-79.5 155q-66 67 -154.5 90.5t-177.5 0t-155 -90.5q-65 -65 -79.5 -155
t18 -177.5t99.5 -155.5zM523.5 703q-79.5 0 -135.5 -56.5t-56 -136t56 -135.5t135.5 -56t135.5 56t56 135.5t-56 136t-135.5 56.5zM523.5 396q-47.5 0 -81 33.5t-33.5 81t33.5 81.5t81 34t81 -34t33.5 -81.5t-33.5 -81t-81 -33.5z" />
    <glyph glyph-name="xiazai20" unicode="&#xe60b;" 
d="M512 -126q-69 0 -131 9.5t-113.5 28t-81.5 49t-30 69.5q0 40 36 72.5t88 51t112 24.5l6 1l-157 252q-8 14 -14 29l-4 8l-1 4q-21 54 -21 111q0 129 91 220t220 91t220 -91t91 -220q0 -57 -21 -111l-2 -6v0l-1 -3q-7 -16 -15 -31l-272 -451l-64 105h-3
q-71 -6 -121.5 -22.5t-66.5 -30.5l-3 -3l3 -3q21 -20 88 -37.5t161 -18.5h12v0q94 1 161 18.5t88 37.5l3 3l-3 2q-12 11 -47 24.5t-83 22.5l54 88q86 -20 131.5 -55t45.5 -82q0 -39 -30 -69.5t-81.5 -49t-113.5 -28t-131 -9.5v0zM512 751q-55 0 -94 -39t-39 -94t39 -93.5
t94 -38.5t94 38.5t39 93.5t-39 94t-94 39v0zM512 751z" />
    <glyph glyph-name="search" unicode="&#xe602;" horiz-adv-x="1027" 
d="M1018 -79l-225 226q112 128 112 297q0 91 -36 175t-96.5 144.5t-144.5 96.5t-175.5 36t-175.5 -36t-144.5 -96.5t-96.5 -144.5t-36 -175.5t36 -175.5t96.5 -144.5t144.5 -96.5t175 -36q86 0 164.5 31t139.5 87l226 -225q7 -8 18 -8t18.5 8t7.5 18.5t-8 18.5zM452 44
q-108 0 -200 53.5t-146 145.5t-54 200.5t54 200.5t146 146t200.5 54t200.5 -54t145.5 -146t53.5 -200.5t-53.5 -200.5t-145.5 -145.5t-201 -53.5v0z" />
    <glyph glyph-name="icon04" unicode="&#xe60c;" 
d="M49 747h267v-82h-267v82zM49 10h861v-82h-861v82zM49 378h267v-82h-267v82zM894 84q-14 3 -21 15l-100 151q-8 12 -5 26t15 21.5t25.5 5t21.5 -14.5l100 -152q7 -12 4.5 -25.5t-14.5 -21.5t-26 -5zM592.5 211.5q-84.5 17.5 -147.5 74t-89.5 137t-9 165t74 147.5
t136.5 89.5t164.5 9t147.5 -74t89.5 -136.5t9 -164.5t-73.5 -147.5t-136.5 -90t-165 -9.5zM901 472q21 101 -35.5 187.5t-158 107.5t-187.5 -35.5t-107 -158t35.5 -187.5t158 -107t187.5 35.5t107 157.5z" />
    <glyph glyph-name="icon03" unicode="&#xe60d;" 
d="M635 314q71 35 114 102.5t43 148.5q0 116 -82 198t-198 82t-198 -82t-82 -198q0 -81 43 -148.5t114 -102.5q-117 -37 -195 -134.5t-87 -222.5q-1 -13 7.5 -23t21.5 -11t22.5 7.5t10.5 21.5q10 134 109 226.5t234 92.5t234 -92.5t109 -226.5q1 -12 10 -20.5t21 -8.5h2
q13 1 21.5 11t7.5 23q-9 125 -87 222.5t-195 134.5zM294 565q0 90 64 154t154 64t154 -64t64 -154t-64 -153.5t-154 -63.5t-154 63.5t-64 153.5z" />
    <glyph glyph-name="icon01" unicode="&#xe60e;" 
d="M808 -5zM749 -5.5q0 24.5 17.5 42t41.5 17.5t41.5 -17.5t17.5 -42t-17.5 -41.5t-41.5 -17t-41.5 17t-17.5 41.5zM430.5 54q-24.5 0 -42 -17.5t-17.5 -42t17.5 -41.5t42 -17t41.5 17t17 41.5t-17 42t-41.5 17.5zM292 255l-58 362q-7 43 -23.5 78.5t-35.5 57.5t-42.5 38
t-42.5 23.5t-38 12t-26.5 5t-11.5 0.5v-56q7 0 17 -1.5t34.5 -11t44.5 -25.5t40 -50t28 -81l58 -358q2 -21 9.5 -42.5t22.5 -44.5t43.5 -37.5t65.5 -14.5h553v56h-553q-21 0 -37.5 8.5t-25 19t-14 25.5t-6.5 22zM832 222h-355q-31 0 -57 11t-41.5 28.5t-25 34t-13.5 32.5
q-7 36 -44 267q-9 60 20 94q26 31 76 31l24 -2l23.5 -3t61 -7t84 -9.5t97 -11t95.5 -10t83 -7t56 -2.5q61 0 87 -36q11 -16 13.5 -37.5t0.5 -31t-5 -16.5l-43 -206q-2 -6 -5.5 -15.5t-14.5 -29t-25.5 -35t-38.5 -27.5t-53 -12zM392 660q-22 0 -31 -10q-11 -13 -5 -46
q7 -48 18 -114t17.5 -108l6.5 -42q2 -3 3.5 -7.5t7.5 -14.5t14 -17t22.5 -13t31.5 -6h355q16 0 30 8t22 17.5t15 22.5t9 17.5t3 8.5l44 207q7 23 -1 34t-38 11q-98 0 -509 51q-8 1 -15 1z" />
    <glyph glyph-name="icon02" unicode="&#xe60f;" 
d="M514 -84zM815 593v94q0 22 -15 38t-36 16t-36 -16t-15 -38v-20l-205 179l-507 -438l51 -46l108 91v-503q0 -28 21 -28h693q23 0 23 28v479l78 -66l45 45zM631 -17h-225v410h225v-410zM836 -17h-144v439q0 32 -21 32h-314q-5 0 -8 -1.5t-4 -5.5t-1 -6.5v-9.5v-9v-439h-123
v522l287 252l328 -281v-493z" />
    <glyph glyph-name="bolt" unicode="&#xe610;" 
d="M1024 896l-768 -512l192 -128l-448 -384l768 384l-192 128z" />
    <glyph glyph-name="box" unicode="&#xe611;" 
d="M0 512h1024v-640h-1024v640zM576 640h448l-128 256h-320v-256zM448 896h-320l-128 -256h448v256z" />
    <glyph glyph-name="home" unicode="&#xe600;" 
d="M512 896l-512 -512h128v-512h768v512h128zM768 0h-192v192h-128v-192h-192v459l256 181l256 -181v-459z" />
    <glyph glyph-name="last" unicode="&#xe612;" 
d="M0 896l768 -512l-768 -512v1024zM768 768h256v-768h-256v768z" />
    <glyph glyph-name="lockstroke" unicode="&#xe613;" 
d="M576 896q-87 0 -160.5 -43t-116.5 -116.5t-43 -160.5v-64h-128v-448q0 -79 56.5 -135.5t135.5 -56.5h384q80 0 136 56.5t56 135.5v512q0 87 -43 160.5t-116.5 116.5t-160.5 43zM384 576q0 79 56.5 135.5t136 56.5t135.5 -56.5t56 -135.5v-64h-384v64zM704 0h-384
q-27 0 -45.5 19t-18.5 45v320h512v-320q0 -26 -18.5 -45t-45.5 -19zM576 192.5q0 -26.5 -18.5 -45.5t-45 -19t-45.5 19t-19 45.5t19 45t45.5 18.5t45 -18.5t18.5 -45z" />
    <glyph glyph-name="loop" unicode="&#xe614;" 
d="M314 778l-186 -185v180h-128v-384h384v128h-150l170 171q53 53 128 72t150 0t129 -72l90 90q-77 77 -185.5 105t-216.5 0t-185 -105zM640 383v-128h150l-170 -171q-54 -53 -128.5 -72t-149.5 0t-129 72l-90 -90q59 -59 134.5 -90.5t159 -31.5t159 31.5t134.5 90.5
l186 185v-180h128v384h-384z" />
    <glyph glyph-name="fanhuidingbu" unicode="&#xe63f;" 
d="M888 239l-347 348q-6 6 -14 9q-2 1 -3 1q-5 1 -9 1q-3 1 -6 0q-15 -1 -26 -11v0l-347 -348q-12 -12 -12 -29t12 -29t29 -12t29 12l318 319l318 -319q12 -12 29 -12t29 12t12 29t-12 29z" />
    <glyph glyph-name="1201youjiantou" unicode="&#xe617;" 
d="M817 426q-2 3 -5 5l-384 385q-16 16 -38.5 16t-38.5 -16t-16 -38.5t16 -38.5l349 -351l-356 -357q-16 -16 -16 -38.5t16 -38.5t38.5 -16t38.5 16l391 390q3 2 5 5q16 16 16 39q0 22 -16 38z" />
    <glyph glyph-name="1202youjiantou" unicode="&#xe618;" 
d="M968 365q0 90 -35.5 172t-95.5 141t-143 94t-174 35t-174 -35t-143 -94t-95 -141t-35 -172v-5v-4q0 -90 35 -172t95 -141.5t143 -94.5t174 -35t174 35t143 94.5t95.5 141.5t35.5 172v4v5zM720 320q-2 -3 -5 -5l-240 -237q-16 -16 -38.5 -16t-38.5 16t-16 39t16 39
l206 203l-206 206q-16 16 -16 38.5t16 38.5t38.5 16t38.5 -16l240 -240q3 -2 5 -5q16 -16 16 -38q0 -23 -16 -39z" />
    <glyph glyph-name="1302dizhi" unicode="&#xe619;" 
d="M271 799v0v0v0v0zM512.5 830q-100.5 0 -186 -49.5t-135 -135t-49.5 -186.5q0 -140 93 -246q3 -4 6 -7l240 -252q2 -3 5 -5q3 -3 7 -6q10 -7 23.5 -6t23.5 11q5 4 8 11l236 247q2 2 4 6q95 105 95 247q0 101 -49.5 186.5t-135 135t-186 49.5zM512 307q-62 0 -105.5 44
t-43.5 106t43.5 106t105.5 44t106 -44t44 -106t-44 -106t-106 -44z" />
    <glyph glyph-name="2001wuxing" unicode="&#xe61a;" 
d="M960 476l-300 58l-147 271l-147 -271l-300 -58l209 -226l-38 -308l276 132l276 -132l-38 308zM513 160l-192 -92l28 213l-135 145l199 44l100 178v3l102 -179l204 -43l-140 -149l18 -202z" />
    <glyph glyph-name="2202xin" unicode="&#xe61b;" 
d="M735 768q-72 0 -135 -42t-88 -107q-25 65 -87.5 107t-134.5 42q-95 0 -159 -64t-64 -159q0 -36 10.5 -71.5t34 -73t49 -70t69 -77t81 -80.5t97 -93.5t104.5 -103.5q46 46 105.5 103.5t96.5 93.5t80.5 80.5t69.5 77t49.5 70t33.5 73t10 71.5q0 95 -64 159t-158 64v0z" />
    <glyph glyph-name="2301jiantou2" unicode="&#xe61c;" 
d="M895 435h-583l268 268l-68 68l-384 -384l384 -384l68 68l-268 268h583v96z" />
    <glyph glyph-name="2501caidan" unicode="&#xe61d;" 
d="M193 256h637v-71h-637v71zM193 449h637v-71h-637v71zM193 639h637v-70h-637v70z" />
    <glyph glyph-name="2701jiantou3" unicode="&#xe61e;" 
d="M705 576l-193 -193l-193 193l-60 -59l253 -253l252 253z" />
    <glyph glyph-name="2801zengjia2" unicode="&#xe61f;" 
d="M895 383q0 -27 -19.5 -46t-46.5 -19h-632q-28 0 -47 19t-19 46v0q0 28 19 47t47 19h632q27 0 46.5 -19t19.5 -47v0zM508 7q-27 0 -46 19t-19 47v632q0 27 19 46.5t46 19.5v0q28 0 47 -19.5t19 -46.5v-632q0 -28 -19 -47t-47 -19v0z" />
    <glyph glyph-name="3001zhengque" unicode="&#xe620;" 
d="M347 212l-211 210l-72 -71l283 -282l606 606l-71 71z" />
    <glyph glyph-name="3101jiantou3" unicode="&#xe621;" 
d="M862 577l-350 -351l-351 351h701z" />
    <glyph glyph-name="iconiosxuanting26fuben" unicode="&#xe64f;" 
d="M629 653q20 23 30 54.5t10 51.5v21q-8 -1 -22 -3.5t-45.5 -17.5t-51 -37.5t-29 -54t-10.5 -51.5v-20q8 0 22 3t45.5 17.5t50.5 36.5v0v0zM724 360q0 47 24 87t64 62q-27 38 -68.5 60t-77.5 22q-31 0 -86.5 -19t-62 -19t-52 17.5t-82.5 17.5q-29 1 -60.5 -9.5t-64 -39.5
t-46.5 -71q-16 -47 -19.5 -101.5t10 -118.5t44.5 -123q73 -137 142 -137q22 0 69.5 17t68 17t61.5 -17t62 -17q31 0 62.5 23t56.5 61q15 22 30.5 53t23.5 51l8 21q0 2 1 4q-48 19 -78 62.5t-30 96.5v0v0zM724 360z" />
    <glyph glyph-name="dingdan" unicode="&#xe640;" 
d="M793 -64h-562q-42 0 -72.5 30.5t-30.5 73.5v625q0 42 30.5 72.5t72.5 30.5h58q13 0 22.5 -9.5t9.5 -22.5t-9.5 -22.5t-22.5 -9.5h-58q-16 0 -27.5 -11.5t-11.5 -27.5v-625q0 -17 11.5 -28.5t27.5 -11.5h562q16 0 27.5 11.5t11.5 28.5v625q0 16 -11.5 27.5t-27.5 11.5h-56
q-14 0 -23 9.5t-9 22.5t9 22.5t23 9.5h56q42 0 72.5 -30.5t30.5 -72.5v-625q0 -43 -30.5 -73.5t-72.5 -30.5zM595 640h-167q-31 0 -53.5 22.5t-22.5 54.5v38q0 32 22.5 54.5t53.5 22.5h167q32 0 54.5 -22.5t22.5 -54.5v-38q0 -32 -22.5 -54.5t-54.5 -22.5zM428 768
q-5 0 -8.5 -4t-3.5 -9v-38q0 -5 3.5 -9t8.5 -4h167q5 0 9 4t4 9v38q0 5 -4 9t-9 4h-167zM736 479h-320q-13 0 -22.5 9.5t-9.5 22.5t9.5 22.5t22.5 9.5h320q13 0 22.5 -9.5t9.5 -22.5t-9.5 -22.5t-22.5 -9.5zM320 511q0 -13 -9.5 -22.5t-22.5 -9.5v0q-13 0 -22.5 9.5
t-9.5 22.5v0q0 13 9.5 22.5t22.5 9.5v0q13 0 22.5 -9.5t9.5 -22.5v0zM736 320h-320q-13 0 -22.5 9.5t-9.5 22.5t9.5 22.5t22.5 9.5h320q13 0 22.5 -9.5t9.5 -22.5t-9.5 -22.5t-22.5 -9.5zM320 352q0 -13 -9.5 -22.5t-22.5 -9.5v0q-13 0 -22.5 9.5t-9.5 22.5v0q0 13 9.5 22.5
t22.5 9.5v0q13 0 22.5 -9.5t9.5 -22.5v0zM736 159h-320q-13 0 -22.5 9.5t-9.5 22.5t9.5 22.5t22.5 9.5h320q13 0 22.5 -9.5t9.5 -22.5t-9.5 -22.5t-22.5 -9.5zM320 191q0 -13 -9.5 -22.5t-22.5 -9.5v0q-13 0 -22.5 9.5t-9.5 22.5v0q0 13 9.5 22.5t22.5 9.5v0q13 0 22.5 -9.5
t9.5 -22.5v0z" />
    <glyph glyph-name="erweima" unicode="&#xe641;" 
d="M95.5 512q-13.5 0 -23 9.5t-9.5 22.5v256q0 14 9.5 23t22.5 9h256q14 0 23 -9t9 -22.5t-9 -23t-23 -9.5h-224v-224q0 -13 -9 -22.5t-22.5 -9.5zM928.5 512q-13.5 0 -22.5 9.5t-9 22.5v224h-224q-14 0 -23 9.5t-9 23t9 22.5t23 9h256q13 0 22.5 -9t9.5 -23v-256
q0 -13 -9.5 -22.5t-23 -9.5zM928.5 -64q-13.5 0 -22.5 9.5t-9 22.5v256q0 14 9 23t22.5 9t23 -9t9.5 -23v-256q0 -13 -9.5 -22.5t-23 -9.5zM352 -64h-255q-13 0 -22.5 9t-9.5 23v256q0 13 9.5 22.5t22.5 9.5h255q13 0 22.5 -9.5t9.5 -22.5v-256q0 -14 -9.5 -23t-22.5 -9z
M129 0h191v192h-191v-192zM799 -64h-128q-13 0 -22.5 9.5t-9.5 22.5v128q0 14 9.5 23t22.5 9h128q14 0 23 -9t9 -23v-128q0 -13 -9 -22.5t-23 -9.5zM703 0h64v64h-64v-64zM927 352h-830q-13 0 -22.5 9.5t-9.5 23t9.5 22.5t22.5 9h830q14 0 23 -9t9 -22.5t-9 -23t-23 -9.5z
" />
    <glyph glyph-name="quan" unicode="&#xe642;" 
d="M319.5 321q-13.5 0 -23 9t-9.5 23v64q0 13 9.5 22.5t23 9.5t22.5 -9.5t9 -22.5v-64q0 -14 -9 -23t-22.5 -9zM319.5 128q-13.5 0 -23 9.5t-9.5 22.5v64q0 14 9.5 23t23 9t22.5 -9t9 -23v-64q0 -13 -9 -22.5t-22.5 -9.5zM319.5 512q-13.5 0 -23 9.5t-9.5 22.5v64
q0 14 9.5 23t23 9t22.5 -9t9 -23v-64q0 -13 -9 -22.5t-22.5 -9.5zM857 65h-690q-43 0 -73.5 30t-30.5 73v432q0 43 30.5 73t73.5 30h690q43 0 73.5 -30t30.5 -73v-118q0 -13 -9.5 -22.5t-22.5 -9.5q-28 0 -47 -19t-19 -46.5t19 -46.5t47 -19q13 0 22.5 -9.5t9.5 -22.5v-119
q0 -43 -30.5 -73t-73.5 -30zM167 639q-16 0 -28 -11.5t-12 -27.5v-432q0 -16 12 -27.5t28 -11.5h690q16 0 28 11.5t12 27.5v91q-43 11 -70.5 46t-27.5 79.5t27.5 79.5t70.5 46v90q0 16 -12 27.5t-28 11.5h-690z" />
    <glyph glyph-name="chanpinshuoming" unicode="&#xe6ce;" horiz-adv-x="1025" 
d="M1005 654q-12 17 -36 27q1 -22 -3 -35l-184 -605q-5 -16 -21 -25.5t-35 -9.5h-566q-73 0 -88 43q-6 16 1 26q6 9 23 9h533q57 0 78 21q22 22 44 95l168 555q14 45 -11 79q-25 35 -70 35h-466q-8 0 -31 -6v2q-27 8 -46 -1.5t-27 -25t-18 -39.5t-17 -34q-3 -4 -10 -12.5
t-11.5 -15t-5.5 -10.5t1 -16.5t2 -15.5q-3 -22 -17 -59q-15 -37 -26 -52l-14 -14q-11 -11 -13 -18q-3 -3 -1 -17q3 -15 2 -20q-3 -23 -15 -55q-13 -33 -26 -56q-2 -5 -10 -14q-9 -11 -11 -18q-1 -3 0.5 -17t-0.5 -18q-5 -25 -18 -56q-14 -34 -28 -56q-3 -5 -9.5 -14
t-10.5 -16t-5 -12q0 -2 2 -11.5t2 -13.5l-3 -23q0 -3 -0.5 -7.5t-0.5 -6v-2.5q-14 -37 1 -78q17 -48 60 -80q45 -33 92 -33h565q39 0 75 26q36 27 47 66l169 555q13 45 -11 79zM315 535q2 8 10 14t16 6h372q9 0 12.5 -6t1.5 -14l-13 -39q-3 -8 -10.5 -13.5t-15.5 -5.5h-373
q-8 0 -12 5.5t-1 13.5zM366 692q2 8 10 14t15 6h373q9 0 12.5 -6t0.5 -14l-12 -39q-3 -8 -10.5 -14t-15.5 -6h-373q-8 0 -12 6t-1 14z" />
    <glyph glyph-name="dui" unicode="&#xe632;" 
d="M512 896q-139 0 -257 -68.5t-186.5 -186.5t-68.5 -257t68.5 -257t186.5 -186.5t257 -68.5t257 68.5t186.5 186.5t68.5 257t-68.5 257t-186.5 186.5t-257 68.5zM442 70q-64 82 -135.5 142t-126.5 80l170 106l82 -164q3 7 8 19t23 49t38 72t51.5 82t64 85.5t75 76
t85.5 59.5q-1 -17 -5.5 -56t-5.5 -59.5t3.5 -53.5t17.5 -63q-43 -10 -115.5 -79.5t-135 -152t-94.5 -143.5z" />
    <glyph glyph-name="shouji" unicode="&#xe644;" 
d="M795 896h-567q-17 0 -29 -12t-12 -28v-944q0 -16 12 -28t29 -12h567q17 0 29 12t12 28v944q0 16 -12 28t-29 12v0zM477 841h69q9 0 15.5 -7t6.5 -16.5t-6.5 -16t-15.5 -6.5h-69q-9 0 -15.5 6.5t-6.5 16t6.5 16.5t15.5 7v0zM557 -79h-91v91h91v-91v0zM767 79
q0 -17 -12 -29t-29 -12h-429q-17 0 -29 12t-12 29v650q0 16 12 28t29 12h429q17 0 29 -12t12 -28v-650v0zM767 79z" />
    <glyph glyph-name="jinkoushipin" unicode="&#xe62b;" 
d="M796 589l-148 208v54q0 18 -13.5 31.5t-31.5 13.5h-182q-18 0 -31.5 -13.5t-13.5 -31.5v-54l-148 -208q-3 -3 -3 -9v-603q0 -42 31 -73.5t74 -31.5h137h30h197q43 0 74 31.5t31 73.5v603q0 6 -3 9v0zM406 775h182l-115 -180h-206l130 180h9v0zM769 438l-272 -223v350h272
v-127v0zM509 595l115 180h3l130 -180h-248v0zM467 565v-362h-212v362h212v0zM255 173h212v-120h-212v120v0zM497 176v0l272 223v-111l-272 -223v111v0zM421 866h182q15 0 15 -15v-45h-212v45q0 15 15 15v0zM330 -98q-31 0 -53 22t-22 53v46h212v-121h-137v0zM694 -98h-197
v124v0l272 223v-272q0 -31 -22 -53t-53 -22v0z" />
    <glyph glyph-name="changyonglogo35" unicode="&#xe71c;" 
d="M795 221q-55 28 -78 80q-16 38 -11 83q5 40 28 71q17 22 44 39q4 3 1 7q-9 12 -20 22q-42 40 -109 45q-28 2 -63 -10q-30 -10 -50 -18q-21 -8 -43 0q-50 18 -51 18q-30 9 -52 8q-25 -2 -45 -9q-74 -28 -107 -107q-17 -43 -16 -97q-1 -22 3 -50q10 -65 40 -130
q19 -40 56 -87q20 -26 41 -41q30 -21 65 -12q16 4 36 12q29 12 54 13q31 2 67 -13q19 -8 35 -11q36 -9 67 11q17 11 31 29q56 66 80 139q2 4 1.5 5t-4.5 3zM514 574q28 -1 53 10q28 14 51 43q35 45 35 97v7q0 6 -1 7t-7 0q-25 -3 -51 -18q-56 -29 -78 -90q-9 -25 -6 -52
q0 -4 4 -4z" />
    <glyph glyph-name="bao" unicode="&#xe63e;" 
d="M700 613q10 0 37.5 0.5t47.5 0.5t44.5 -0.5t42 -4.5t25.5 -10q10 -9 13 -31t1.5 -43.5t2.5 -40.5v-32q1 -5 0.5 -17t0.5 -17q5 -20 4 -65t3 -65q1 -5 1 -16.5t1 -15.5q2 -12 1 -34t2 -32q2 -11 1 -33.5t1 -32.5v-32q4 -16 4 -45t-5 -41q-11 -16 -36 -22h-156h-603
q-31 8 -39 28q-3 6 -3 14.5t1 22.5t2 15v40.5t4 53.5q1 5 0.5 16.5t0.5 15.5q0 11 0.5 33t1.5 33q2 9 1 31.5t1 33.5q1 4 1 15.5t1 17.5q4 20 3 65t4 65v29q0 5 0.5 21.5t1 25t3.5 19.5t7 17q9 11 25.5 14t44.5 3h131q-1 6 -2 34t-0.5 47t3.5 32q0 3 0.5 10.5t0.5 11.5
q14 51 42 82.5t75 50.5q17 8 44.5 13t47.5 0q2 -1 14.5 -3t19.5 -4q32 -11 68 -38q10 -7 28 -33q21 -31 31 -68q0 -3 0.5 -10.5t0.5 -11.5q3 -13 3.5 -32.5t-0.5 -46t-1 -34.5zM372 613h279v85q-1 6 -1 20.5t-1 21.5q-7 26 -29 56q-11 14 -14 17q-24 18 -52 28q-29 10 -57 4
q-5 -1 -15.5 -2t-16.5 -4q-71 -25 -90 -99q-4 -14 -4.5 -35t0.5 -53t1 -39zM162 564q-4 -93 -11.5 -268.5t-10.5 -262.5q8 -3 20 -3t28.5 1t22.5 1h156h516q2 4 2 14q-3 2 -2 15.5t0 17.5q-2 9 -2.5 21t-1 26.5t-0.5 21.5v29q-3 15 -2.5 49t-3.5 49v32q-2 9 -2.5 21t-1 27
t-0.5 21v29q-2 10 -1 32t-2 33q-4 18 -4 94q-23 2 -49.5 2.5t-62 -0.5t-50.5 -1v-62q11 -3 19 -18t3 -32t-22 -28.5t-38 -5.5q-17 6 -28.5 23t-3.5 38q4 11 17 22l1.5 0.5t2.5 0.5v62h-279v-62q22 -14 23 -37t-20.5 -39.5t-48.5 -4.5q-14 7 -22 26t1 39q2 3 10.5 10t9.5 8
v60q-15 0 -51 1t-62.5 0.5t-49.5 -2.5zM341 485q-1 -1 -4 -1q-10 -12 -10.5 -13.5t2.5 -18.5q13 -9 25 -9q1 1 6 3.5t7 5.5q8 13 -0.5 23.5t-25.5 9.5zM669 485q-1 0 -4.5 -3t-5.5 -5t-4.5 -5t-2.5 -7t3 -8q4 -14 27 -14q1 1 5.5 4.5t6 5t3 5.5t1.5 10q-1 2 -3.5 5.5
t-3.5 4.5l-3 3t-4.5 2.5t-6 1t-8.5 0.5z" />
    <glyph glyph-name="jiadian" unicode="&#xe62d;" 
d="M858 767h-693q-41 0 -70 -29t-29 -70v-446q0 -41 29 -70t70 -29h75v-99q0 -10 7 -17.5t17.5 -7.5t17.5 7.5t7 17.5v99h446v-99q0 -10 7 -17.5t17.5 -7.5t17.5 7.5t7 17.5v99h74q41 0 70 29t29 70v446q0 41 -29 70t-70 29zM908 222q0 -20 -14.5 -34.5t-35.5 -14.5h-693
q-20 0 -34.5 14.5t-14.5 34.5v446q0 20 14.5 34.5t34.5 14.5h693q21 0 35.5 -14.5t14.5 -34.5v-446zM594 665h-297q-41 0 -70 -29.5t-29 -69.5v-248q0 -41 29 -70t70 -29h297q41 0 70 29t29 70v248q0 40 -29 69.5t-70 29.5zM644 318q0 -21 -14.5 -35.5t-35.5 -14.5h-297
q-20 0 -34.5 14.5t-14.5 35.5v248q0 20 14.5 34.5t34.5 14.5h297q21 0 35.5 -14.5t14.5 -34.5v-248zM792.5 309q10.5 0 17.5 7.5t7 17.5v303q0 10 -7 17t-17.5 7t-17.5 -7t-7 -17v-303q0 -10 7 -17.5t17.5 -7.5zM793 275v0q-10 0 -17.5 -7.5t-7.5 -17.5t7.5 -17.5t18 -7.5
t17.5 7.5t7 17.5t-7 17.5t-18 7.5z" />
    <glyph glyph-name="anzhuo" unicode="&#xe643;" 
d="M846 541q-22 0 -37.5 -16t-15.5 -38v-212q0 -22 15.5 -38t37.5 -16t38 15.5t16 38.5v212q-1 22 -16.5 38t-37.5 16v0zM202 541q-22 0 -37.5 -16t-15.5 -38v-212q0 -22 15.5 -38t38 -16t38 15.5t15.5 38.5v212q0 22 -15.5 38t-38.5 16v0zM288 539v-386q0 -18 12.5 -30
t29.5 -12h47v-118q0 -22 15.5 -38.5t38.5 -16.5q22 0 37.5 16t15.5 39v118h83v-118q0 -22 15.5 -38.5t38.5 -16.5q22 0 37.5 16t15.5 39v118h47q18 0 30 12t12 30v386h-475v0v0zM637 740l43 63q5 7 -1 11t-11 -2l-45 -66q-49 19 -99 19q-52 0 -99 -19l-45 66q-5 7 -11 2
q-7 -4 -2 -11l45 -63q-53 -25 -86.5 -69t-38.5 -97h475q-5 53 -38.5 97t-86.5 69v0zM424 639q-11 0 -18.5 7.5t-7.5 18.5t7.5 19t18.5 8t18.5 -8t7.5 -19q0 -10 -7.5 -18t-18.5 -8v0zM628 639q-11 0 -19 7.5t-8 18.5t8 19t19 8t18.5 -8t7.5 -19q0 -10 -8 -18t-18 -8v0z" />
    <glyph glyph-name="meizhuangyongpin" unicode="&#xe6ee;" 
d="M711 415v110q0 10 -12.5 15.5t-24.5 6.5h-13v263q0 9 -12 17q-11 6 -26 5q-61 -6 -139 -32q-30 -10 -60 -27t-46 -30l-15 -12q-1 -59 -1 -65v-119q-23 0 -34.5 -3.5t-13.5 -7t-2 -11.5v-110v-22v-436q0 -9 6.5 -15.5t18.5 -6.5h350q12 0 18 6t6 16v436v22v0zM412 713
q0 13 103 47q13 5 38 9.5t42 8t17 5.5v-250h-200v180v0zM362 483h299v-99h-299v99v0zM661 -15h-299v349h299v-349v0zM657 -21z" />
    <glyph glyph-name="anzhuo1" unicode="&#xe645;" 
d="M289 195q0 -22 14.5 -37t34.5 -15h36q-2 -6 -2 -13v-102q0 -20 14 -34t33.5 -14t33 14t13.5 34v102q0 7 -2 13h88q-2 -6 -2 -13v-102q0 -20 13.5 -34t33 -14t33.5 14t14 34v102q0 7 -2 13h36q20 0 34.5 15t14.5 37v354h-438v-354v0zM210 549q-19 0 -33 -14t-14 -34v-207
q0 -20 14 -34t33.5 -14t33 14t13.5 34v207q0 20 -13.5 34t-33.5 14v0zM806 549q-20 0 -33.5 -14t-13.5 -34v-207q0 -20 13.5 -34t33 -14t33.5 14t14 34v207q0 20 -14 34t-33 14v0zM616 743l37 57q4 7 -2.5 11.5t-10.5 -2.5l-21 -32l-9 -14l-9 -14q-44 18 -93 18t-93 -18
l-18 28l-21 32q-4 7 -10.5 2.5t-2.5 -11.5l37 -57q-51 -24 -81 -67t-30 -94h438q0 51 -30 94t-81 67v0v0zM414 646q-10 0 -17 7t-7 17t7 17t17 7t16.5 -7t6.5 -17t-6.5 -17t-16.5 -7v0zM602 646q-10 0 -17 7t-7 17t7 17t17 7t16.5 -7t6.5 -17t-6.5 -17t-16.5 -7v0zM602 646z
M291 195q0 -21 14.5 -36t34.5 -15h36q-2 -7 -2 -14v-102q0 -20 14 -34t33.5 -14t33 14t13.5 34v102q0 7 -2 14h88q-2 -7 -2 -14v-102q0 -20 13.5 -34t33 -14t33.5 14t14 34v102q0 7 -2 14h36q20 0 34.5 15t14.5 36v355h-438v-355v0zM212 550q-19 0 -33 -14.5t-14 -34.5v-207
q0 -20 14 -34t33.5 -14t33 14t13.5 34v207q0 20 -13.5 34.5t-33.5 14.5v0v0zM808 550q-20 0 -33.5 -14.5t-13.5 -34.5v-207q0 -20 13.5 -34t33 -14t33.5 14t14 34v207q0 20 -14 34.5t-33 14.5v0v0zM618 743l37 57q4 7 -2.5 11.5t-10.5 -2.5l-21 -32l-9 -14l-9 -13
q-44 17 -93 17t-93 -17l-18 27l-21 32q-4 7 -10.5 2.5t-2.5 -11.5l37 -57q-51 -24 -81 -67t-30 -94h438q0 51 -30 94t-81 67v0v0zM416 646q-10 0 -17 7.5t-7 17.5t7 17t17 7t16.5 -7t6.5 -17t-6.5 -17.5t-16.5 -7.5v0zM604 646q-10 0 -17 7.5t-7 17.5t7 17t17 7t16.5 -7
t6.5 -17t-6.5 -17.5t-16.5 -7.5v0zM604 646z" />
    <glyph glyph-name="icon13" unicode="&#xe631;" 
d="M871 500q-7 0 -14 -1v88q0 48 -33.5 82t-81.5 34h-460q-48 0 -81.5 -34t-33.5 -82v-88q-7 1 -14 1q-30 0 -51 -21t-21 -52v-115q0 -31 21 -52t50 -21h15v-160q0 -6 4 -10t10 -4h46q15 0 19 13l41 161h450l41 -161q4 -13 18 -13h46q6 0 10.5 4t4.5 10v160h15q29 0 50 21
t21 52v115q0 31 -21 52t-51 21zM196 587q0 36 25 61.5t61 25.5h460q36 0 61 -25.5t25 -61.5v-101q-28 -22 -28 -58v-44h-576v44q0 36 -28 58v101zM220 94h-24v145h61zM828 94h-24l-37 145h61v-145zM915 311q0 -18 -13 -30.5t-31 -12.5h-718q-18 0 -31 12.5t-13 30.5v117
q0 18 13 30.5t30.5 12.5t30.5 -13t13 -30v-59q0 -6 4 -10t10 -4h604q6 0 10 4t4 10v59q0 18 12.5 30.5t30.5 12.5t31 -12.5t13 -30.5v-117z" />
    <glyph glyph-name="caozuo" unicode="&#xe7b5;" 
d="M801 488h-2q-23 0 -44 -13q-9 26 -30 42t-49 16q-25 0 -46 -13q-9 26 -30 42t-49 16q-21 0 -40 -10v87q0 35 -24 60t-60 25q-35 0 -60.5 -25t-25.5 -60v-332l-52 52q-26 24 -63 23t-59 -23q-15 -16 -23.5 -37t-5.5 -46t23 -45l240 -239q7 -7 16 -12q36 -29 81 -43
t120 -14q51 0 91 8t67.5 21t47.5 35t31.5 45t18 55t8 60.5t1.5 67.5v172q0 35 -23.5 60t-58.5 25v0zM838 231q0 -38 -0.5 -57t-4.5 -50.5t-12.5 -47.5t-24 -37t-39 -31t-58.5 -17t-81 -7q-68 0 -113.5 15t-77.5 47l-228 227q-14 16 -13 32.5t14 29.5t32 13t31 -12l75 -74
l49 -48v432q0 16 12 28t28 12q17 0 27.5 -11.5t10.5 -28.5v-275h1q-1 -2 -1 -5q0 -9 7 -15.5t16 -6.5t16 6.5t7 15.5q0 3 -1 5h1v113q0 17 11 28.5t28 11.5h4t9.5 -2.5t12 -6t10 -12t4.5 -19.5v-149v0v-5q0 -9 6.5 -15.5t16 -6.5t16 6.5t6.5 15.5q0 3 -1 5h1v104
q0 17 11 28.5t28 11.5q1 0 4 -0.5t10 -3t12 -6.5t9.5 -12t4.5 -18v-131h1q-1 -2 -1 -5q0 -9 7 -15.5t16 -6.5t15.5 6.5t6.5 15.5v5v0v89q0 17 11.5 29t27.5 12q2 0 4.5 -0.5t9.5 -2.5t12 -5.5t9.5 -12t4.5 -20.5v-166v0zM308 527v76q-12 25 -12 53q0 53 38 91t92 38t92 -38
t38 -91q0 -15 -3 -29q24 -1 41 -18q7 24 7 47q0 72 -51 123.5t-123.5 51.5t-124 -51.5t-51.5 -123.5q0 -77 57 -129v0z" />
    <glyph glyph-name="lianyiqun" unicode="&#xe633;" 
d="M752 430v68q33 92 29 174q-1 15 2 38t7.5 44.5t9.5 41t8.5 32l3.5 12.5l7 23l-143 33l-4 -20q-7 -29 -31 -58q-47 -60 -129 -60q-21 0 -39.5 4t-32.5 10.5t-26 15t-21 18.5t-16 19t-11.5 18.5t-7 16t-4.5 11.5l-2 5l-4 20l-143 -36l7 -22q4 -12 9.5 -32t14 -65t7.5 -69
q-4 -90 29 -174v-68l-206 -467l11 -11l7.5 -4.5t22.5 -11.5t37.5 -15.5t58 -17t78 -15.5t103 -11.5t128.5 -4.5q88 0 164 8t120 17.5t81 23t48 20t21 12.5l1 1l11 11zM314 447v31h396v-31h-396zM319 843q22 -44 31 -56q60 -75 162 -75q106 0 162 75q24 31 31 56l60 -14
q-28 -114 -26 -157q2 -84 -25 -151h-404q-27 67 -25 151q3 62 -26 157zM834 -50q-126 -36 -322 -36t-322 36q-52 16 -71 29l189 426h77l-42 -184l42 -9l45 193h164l45 -193l42 9l-42 184h80l188 -426q-31 -16 -73 -29v0zM834 -50z" />
    <glyph glyph-name="yao" unicode="&#xe634;" 
d="M639 650q58 0 99 -40q16 -17 28 -45.5t12 -52.5v-1q0 -57 -40 -98l-255 -255q-17 -16 -45.5 -28t-52.5 -12v0h-1q-24 0 -52.5 12t-45 28.5t-28.5 45t-12 52.5v1q0 57 40 98l255 255q17 16 45.5 28t52.5 12v0zM639 691v0q-31 0 -68 -15.5t-59 -36.5l-255 -255
q-21 -22 -36.5 -59t-15.5 -68v0v-1q0 -31 15.5 -68t37 -58.5t58.5 -37t68 -15.5h1v0q31 0 68 15.5t59 36.5l255 255q21 22 36.5 59t15.5 68v0v1q0 31 -15.5 68t-37 58.5t-58.5 37t-68 15.5h-1zM640 620h-1q-22 0 -48.5 -11t-42.5 -27l-81 -81q-5 -4 -5 -10t4.5 -10t10 -4
t10.5 4l81 81q13 13 33.5 21.5t37.5 8.5h1q41 0 71 -30q4 -4 10 -4t10 4.5t4 10t-4 9.5q-16 16 -42.5 27t-48.5 11v0zM640 284l-230 231q-13 -16 -29 -29l229 -229q14 15 30 27z" />
    <glyph glyph-name="yonghufankui" unicode="&#xe721;" 
d="M476 165v0q-5 0 -8 3l-132 129q-4 3 -4 8t4 9l466 465q4 3 9 3t8 -3l132 -127q4 -4 4 -9t-4 -8l-466 -467q-4 -3 -9 -3zM361 305l115 -112l450 450l-115 110zM942 632q-7 0 -11 4l-127 124q-4 5 -5 12v-1v0q0 6 5 11l48 47q21 21 54 21t55 -21l38 -37q24 -23 24 -55v-1
q0 -30 -21 -51l-48 -48q-5 -5 -13 -5h1zM827 771l115 -112l43 43q14 14 14 35q0 22 -17 38l-38 36q-15 15 -38 15t-38 -14zM874.5 563q-4.5 0 -8.5 3l-132 129q-3 3 -3 8t3.5 8.5t8.5 3.5q4 0 8 -3l132 -129q3 -3 3 -8t-3.5 -8.5t-8 -3.5zM249 71q-5 0 -8.5 3.5t-3.5 8.5
q0 2 1 5l96 221q3 7 11 7q5 0 8.5 -3.5t3.5 -8.5q0 -2 -1 -4l-84 -195l201 83q1 1 3 1q5 0 8.5 -3.5t3.5 -8.5q0 -7 -6 -11l-229 -94q-2 -1 -4 -1v0zM1011 -17h-992q-5 0 -8.5 3.5t-3.5 8.5t3.5 8.5t8.5 3.5h992q5 0 8.5 -3.5t3.5 -8.5t-3.5 -8.5t-8.5 -3.5z" />
    <glyph glyph-name="huayouqiqingxiji" unicode="&#xe635;" 
d="M396 325h92v0q11 0 18 7.5t7 17.5v0v0q0 10 -7 17.5t-17 7.5h-1h-92q-11 0 -18 -7.5t-7 -17.5t7 -17.5t18 -7.5zM621 186h-225q-11 0 -18 -7t-7 -17.5t7 -17.5t18 -7h225q10 1 16.5 8t6.5 16.5t-6.5 16.5t-16.5 8zM621 282h-225h-2q-10 0 -17 -7t-7 -17.5t7 -17.5t17 -7
h2h225v0q10 0 17.5 7t7.5 17v0v0q0 11 -7.5 18t-17.5 7zM361 817zM346 816.5q0 -6.5 4.5 -11t11 -4.5t11 4.5t4.5 11t-4.5 11t-11 4.5t-11 -4.5t-4.5 -11zM361 859zM346 859.5q0 -6.5 4.5 -11.5t11 -5t11 5t4.5 11.5t-4.5 11t-11 4.5t-11 -4.5t-4.5 -11zM400 838zM385 837.5
q0 -6.5 4.5 -11t11 -4.5t11 4.5t4.5 11t-4.5 11.5t-11 5t-11 -5t-4.5 -11.5zM323 795zM307 795.5q0 -6.5 4.5 -11t11 -4.5t11 4.5t4.5 11t-4.5 11t-11 4.5t-11 -4.5t-4.5 -11zM323 880zM307 880.5q0 -6.5 4.5 -11t11 -4.5t11 4.5t4.5 11t-4.5 11t-11 4.5t-11 -4.5t-4.5 -11z
M323 838zM307 837.5q0 -6.5 4.5 -11t11 -4.5t11 4.5t4.5 11t-4.5 11.5t-11 5t-11 -5t-4.5 -11.5zM761 335v0q-15 0 -25 -10.5t-10 -25.5v0v-271q0 -26 -25.5 -51.5t-52.5 -25.5h-272q-26 0 -51.5 25.5t-25.5 51.5v326q0 43 20.5 83.5t55.5 70.5l2 2q58 48 125 48h20
q45 0 88.5 -24.5t71.5 -68.5q4 -12 16 -20t24 -8q17 0 29.5 12t12.5 30q0 16 -11 28l-2 4q-65 80 -153 100q9 19 9 37q0 30 -18 54.5t-45 34.5v69h41l6 3t10 10t6 19q-1 13 -10 22t-22 9h-31q-3 1 -6 1h-62q-22 0 -30 -22q-1 1 -2 1v0q-5 0 -8 -3.5t-3 -7.5v0q0 -5 3 -8
t8 -3h2q8 -21 30 -21h6v-60h-2v-10q-26 -9 -44.5 -35t-18.5 -53q0 -20 8 -37q-82 -19 -139.5 -91t-57.5 -155v-1v-364q0 -52 37 -89t89 -37h316q52 0 89 37t37 89v299q0 15 -10.5 25t-24.5 11z" />
    <glyph glyph-name="youxiziyuan" unicode="&#xe63b;" horiz-adv-x="1110" 
d="M833 588h-218q20 31 22 69v2q0 20 -10.5 42.5t-25.5 35.5q-40 36 -46 57.5t15 51.5q5 7 5 16q0 13 -9.5 22.5t-22.5 9.5q-14 0 -24 -11q-19 -27 -24.5 -53.5t-1.5 -45.5t17.5 -39.5t23.5 -30t25 -23.5q15 -12 15 -31q-2 -17 -14 -37.5t-26 -31.5h-266q-111 0 -189.5 -79
t-78.5 -190v-6q0 -40 5 -90t19.5 -113.5t36 -114.5t60 -86t85.5 -35q69 0 152 62.5t123 143.5h145q39 -83 122.5 -147t152.5 -64q47 0 85 35.5t60 87t36.5 115.5t19.5 114.5t5 90.5v4q0 111 -78.5 190t-190.5 79h-5zM894 -63q-51 0 -123.5 59.5t-99.5 130.5q-4 9 -12.5 15
t-17.5 6h-184q-9 0 -17.5 -6t-11.5 -15q-28 -70 -100.5 -129t-123.5 -59q-32 0 -60 37t-45 94t-26.5 122t-9.5 124q1 84 61.5 144.5t144.5 62.5h566q85 0 145.5 -60.5t60.5 -146.5q-1 -55 -11 -117.5t-27 -123t-46 -99.5t-63 -39zM525 212h-14q-7 0 -11.5 -5t-4.5 -11.5
t4.5 -11t11.5 -4.5h16q6 0 11 4.5t5 11t-5 11.5t-11 5h-2zM462 212h-56q-11 -1 -15 -11q-22 -57 -85.5 -122.5t-99.5 -65.5h-3q-6 0 -11 -4.5t-5 -11t5 -11t11 -4.5h3q46 0 114 67.5t97 131.5h47q7 0 11.5 4.5t4.5 11t-4.5 11t-11.5 4.5h-2zM248 195q0 -6 5 -11t11.5 -5
t11 5t4.5 11v94h89q7 0 11.5 5t4.5 11.5t-4.5 11t-11.5 4.5h-88v93q0 6 -4.5 11t-11 5t-11 -5t-4.5 -11v-93h-101q-6 0 -11 -4.5t-5 -11t5 -11.5t11 -5h101zM844 303v0q23 0 38.5 15.5t15.5 37.5q0 23 -16 39q-16 15 -38.5 15t-38.5 -15q-16 -16 -16 -39q0 -22 15.5 -37.5
t38.5 -15.5v0h1zM828 371q7 10 19 10q9 0 15.5 -6.5t6.5 -16.5q0 -12 -9 -18q-7 -7 -16 -7t-15.5 6.5t-6.5 16t6 15.5zM966 307q-16 16 -38.5 16t-38.5 -16q-15 -15 -15 -37.5t15.5 -38t38 -15.5t38 15.5t15.5 38t-15 37.5zM944 254q-7 -7 -16 -7t-16 7q-7 6 -7 15.5
t6.5 16.5t16 7t16 -7t6.5 -16.5t-6 -15.5zM806 269v1q0 22 -16 37.5t-38 15.5t-38 -16q-15 -15 -15 -37t15.5 -38t37.5 -16t38 15.5t16 37.5zM768 254q-6 -7 -15.5 -7t-15.5 7q-7 6 -7 15.5t6.5 16.5t16 7t16 -7t6.5 -16.5t-7 -15.5zM801 221q-16 -15 -16 -37.5t16 -38
t38 -15.5t37.5 15.5t15.5 38t-15 37.5q-16 14 -36 14t-35 -13zM854 168q-6 -7 -15.5 -7t-15.5 7q-7 6 -7 15.5t6.5 16.5t16 7t16 -7t6.5 -16.5t-7 -15.5z" />
    <glyph glyph-name="daocha" unicode="&#xe65d;" 
d="M340 444q39 9 62.5 43t20.5 88q-4 45 -16.5 107.5t-22.5 101.5l-11 40q-2 11 3.5 21.5t16.5 12.5t19.5 -5t11.5 -18q10 -42 29 -116q11 -58 17 -98t6 -51l-1 -10q1 -66 -38 -112t-97 -57v-81q0 -12 -8.5 -20.5t-20.5 -8.5t-20 8.5t-8 20.5v81q-36 6 -67.5 30t-49.5 56
q-10 26 -13.5 39t-3.5 25t-1 21l5 48q3 33 14.5 89.5t22.5 96.5l10 40q2 11 10 17.5t19 4.5q10 -1 16.5 -8.5t6.5 -17.5q0 -2 -1 -5l-1 -5t-3.5 -13.5t-5.5 -20t-6.5 -26.5t-7 -32t-7.5 -36.5t-7.5 -39t-6.5 -41.5t-5 -43q-5 -43 19 -79t63 -47v387q0 12 8 20.5t20 8.5
t20.5 -8.5t8.5 -20.5v-387v0zM309.5 320.5q20.5 0.5 36 -6.5t23.5 -17.5t13 -21t6 -17.5l1 -7q-1 -178 -1 -267v-8t-3.5 -18.5t-10.5 -23.5t-23 -18.5t-38.5 -9.5t-38.5 7.5t-23.5 18.5t-11 24.5t-4 19t-0.5 9.5v265q0 3 0.5 7.5t4.5 16.5t11.5 21t22.5 17t35.5 8.5z
M311 -43q11 0 17.5 4.5t7 8t0.5 5.5l1 276q-1 2 -1.5 5t-7 8t-17.5 5t-17 -5t-6 -9l-1 -5v-274q1 -2 1.5 -5.5t6.5 -8.5t16 -5zM826 318q22 -5 36 -22t17 -31l3 -14q-1 -178 -1 -267v-8t-3.5 -18.5t-10.5 -23.5t-23 -18.5t-38.5 -9.5t-38.5 7.5t-23.5 18.5t-11 24.5t-4 19
t-0.5 9.5v265q0 2 0.5 5.5t3 13t7 17.5t14 16.5t22.5 13.5v465q0 3 -0.5 8t-7 13t-19.5 8q-14 -1 -26 -14.5t-16 -26.5l-5 -13q-9 -37 -14 -89q-8 -73 -8 -146q0 -32 2 -64q-1 -23 9 -35.5t20 -13.5l11 -2l53 1v-51l-56 -1q-4 0 -10.5 1t-20 5.5t-24.5 13t-21 26.5t-12 42
q-6 93 4 216q2 28 7 57.5t9 44.5l4 16q1 6 10 22.5t13 19.5q3 5 8 11.5t24 17.5t41 10q23 1 39.5 -7.5t23.5 -21t9.5 -21.5t2.5 -15l1 -248v-227v0zM804 -43q11 0 17.5 4.5t7.5 8t1 5.5v276q-1 2 -1.5 5t-7 8t-17.5 5t-17 -5t-6 -9l-1 -5l1 -274q0 -2 0.5 -5.5t6.5 -8.5
t16 -5v0z" />
  </font>
</defs>
</svg>
